<?xml version="1.0" standalone="no"?>
<!DOCTYPE svg PUBLIC "-//W3C//DTD SVG 20010904//EN"
 "http://www.w3.org/TR/2001/REC-SVG-20010904/DTD/svg10.dtd">
<svg version="1.0" xmlns="http://www.w3.org/2000/svg"
 width="300.000000pt" height="300.000000pt" viewBox="0 0 300.000000 300.000000"
 preserveAspectRatio="xMidYMid meet">
<metadata>
Created by potrace 1.11, written by Peter Selinger 2001-2013
</metadata>
<g transform="translate(0.000000,300.000000) scale(0.100000,-0.100000)"
fill="#000000" stroke="none">
<path d="M0 1500 l0 -1500 1500 0 1500 0 0 1500 0 1500 -1500 0 -1500 0 0
-1500z m1090 186 l0 -735 -52 -10 c-171 -34 -410 -41 -536 -15 -224 45 -354
179 -383 395 -36 270 96 497 335 572 58 18 94 22 199 22 l127 0 0 253 0 252
155 0 155 0 0 -734z m590 534 l0 -160 -155 0 -155 0 0 160 0 160 155 0 155 0
0 -160z m-3 -817 c-4 -555 -5 -564 -74 -695 -41 -78 -115 -151 -198 -194 l-52
-28 -134 64 c-74 35 -138 67 -142 71 -5 4 19 22 53 40 124 66 191 154 220 289
7 35 14 220 17 503 l5 447 155 0 154 0 -4 -497z m565 173 c3 -311 4 -326 24
-353 31 -42 90 -57 178 -47 l71 9 3 358 2 357 155 0 155 0 -2 -472 -3 -473
-105 -17 c-143 -24 -396 -34 -485 -19 -140 23 -242 96 -281 200 -16 40 -18 93
-22 414 l-3 367 155 0 155 0 3 -324z"/>
<path d="M587 1657 c-55 -17 -106 -63 -130 -116 -32 -70 -31 -199 3 -266 38
-76 90 -107 189 -113 44 -2 91 -2 105 2 l26 6 0 244 0 244 -31 6 c-47 9 -119
6 -162 -7z"/>
</g>
</svg>
