<svg version="1" xmlns="http://www.w3.org/2000/svg" width="800" height="800" viewBox="0 0 600.000000 600.000000"><path d="M155 166.6c0 48.6-.1 51.5-1.7 51-7-2.2-35.2-3-45.8-1.3-7.8 1.2-20.5 4.7-25.5 6.9-2.5 1-6.1 2.6-8 3.5-6.1 2.7-16.3 9.9-22.6 16-14.5 14-23.9 32.3-27.8 54.3-1.3 7.7-1.6 35.9-.3 42.5 3.5 18.6 10.8 34.7 20.7 45.8 4.2 4.8 15.1 13.2 22 17 5.8 3.2 21.9 9.2 27.4 10.3 1.2.2 4.4.8 7.1 1.3 2.8.6 6.6 1.3 8.5 1.7 5.3 1 50.6 1.3 57.5.4 3.3-.5 9.3-1.1 13.4-1.4 4.1-.4 7.7-.8 8-1 .3-.2 3.3-.7 6.6-1.1 3.3-.3 7.8-1 10-1.5s5.8-1.1 7.9-1.4c2.2-.4 4.2-.8 4.4-1.1.3-.3.5-261.3.3-288.3l-.1-5.2h-62v51.6zm-12 98.9c3 .3 7 1 8.8 1.6l3.2 1.1v97.6l-6.2 1c-8.6 1.3-27.3.6-32.9-1.2-16.3-5.1-25.5-15.8-29.4-34-1.7-7.7-1.2-25.4.9-33.1 4-14.3 14-25.7 26.8-30.3 5.6-1.9 19.6-4.2 22.3-3.6.6.2 3.5.5 6.5.9zM273.9 125.7c-.1 2.2-.1 54.5 0 58.9l.1 3.1 30.8-.1 30.7-.1.3-31.8.2-31.7h-31c-28.8 0-31 .1-31.1 1.7zM273.9 219.7c0 .5-.2 37-.4 81.3s-.6 82.5-.9 85c-1.8 18.8-2.4 22.6-4.7 31-6.3 23.1-19.7 38.5-45.2 52-5.7 3.1-9.5 5.6-8.7 5.8 1.7.6 15.2 6.9 34 15.9 16.5 8 21.7 10.3 22.8 10.3.5 0 2.9-1.1 5.3-2.5s5.1-2.8 5.9-3.2c4.5-2 15.8-10.3 21.8-15.8 14.5-13.5 23.4-31 28.7-56.5.4-1.9 1.5-12 2.5-22.5.4-4.4.8-47 .9-94.8l.2-86.7H305c-17 0-31 .3-31.1.7zM386.9 223.2c-.3 19.9.1 126.1.5 128.8.2 1.9.8 5.7 1.1 8.5 2.4 18.1 11.4 33.1 25.5 42.5 4.8 3.2 16.9 8.6 21 9.4 1.4.2 4.7.9 7.4 1.5 9 2.1 16.1 2.6 37.6 2.6 22.7 0 32.9-.6 50-3.1 5.8-.8 12.3-1.7 14.5-2 2.2-.3 7.1-1.2 10.8-2 3.8-.8 7.9-1.4 9.3-1.4h2.4V219h-31c-24.1 0-31 .3-31.1 1.2 0 .7-.1 32.7-.1 71.1-.1 66.9-.2 69.8-1.9 70.8-1.1.5-1.9.8-1.9.5 0-.3-1.5 0-3.2.5-5.3 1.5-23.7 1.8-29.9.5-11.9-2.5-16.5-8.4-18.5-24.1-.1-1.1-.3-28.7-.3-61.3L449 219h-62l-.1 4.2z"/></svg>